# xmcd
#
# Track frame offsets:
#	150
#	13672
#	33515
#	49883
#	67848
#	85068
#	99808
#	117697
#	129850
#	142594
#	157355
#	171182
#	189289
#	203820
#	220628
#
# Disc length: 3039
#
# Revision: 1
# Processed by: cddbd v1.5.1PL0 Copyright (c) Steve Scherf et al.
# Submitted via: VisiTrax 2.9.5.180 - For more info visit www.synapsa.com
# Normalized: r0:DSETVAR1
#
DISCID=c30bdd0f
DTITLE=Various Artist - CDX 292 May 2002
DYEAR=2002
DGENRE=
TTITLE0=Kevin Denney - Cadillac tears
TTITLE1=Tammy Cochran - Life happened
TTITLE2=SHeDaisy - Mine all mine
TTITLE3=Tractors - Ready to cry
TTITLE4=Lee Ann Womack - Something worth leaving behind
TTITLE5=Toby Keith - The angry american (courtsey of the red white and blue)
TTITLE6=James Otto - The ball
TTITLE7=Len Doolin - Girl with a bass boat
TTITLE8=Kacey JOnes - I thought he was Mr. Right, but he left
TTITLE9=Billy Hoffman - Bar room athlete
TTITLE10=Michael Chain - Final last goodbye
TTITLE11=Joseph James - I can't move on
TTITLE12=Keith Bryant - Steady as the rain
TTITLE13=Brent Woodall and The Natchez Trace band - Who cares
TTITLE14=Toby Keith - Intro
EXTD=
EXTT0=
EXTT1=
EXTT2=
EXTT3=
EXTT4=
EXTT5=
EXTT6=
EXTT7=
EXTT8=
EXTT9=
EXTT10=
EXTT11=
EXTT12=
EXTT13=
EXTT14=
PLAYORDER=
